HIERARCHY
ROOT Hips
{
  OFFSET -125.086 92.215 135.881
  CHANNELS 6 Xposition Yposition Zposition Zrotation Xrotation Yrotation
  JOINT LeftUpLeg
  {
    OFFSET 8.64259 1.95398 -2.38835
    CHANNELS 3 Zrotation Xrotation Yrotation
    JOINT LeftLeg
    {
      OFFSET 43.7702 0 0
      CHANNELS 3 Zrotation Xrotation Yrotation
      JOINT LeftFoot
      {
        OFFSET 40.6238 0 0
        CHANNELS 3 Zrotation Xrotation Yrotation
        JOINT LeftToeBase
        {
          OFFSET 12.7242 0 0
          CHANNELS 3 Zrotation Xrotation Yrotation
          End Site
          {
            OFFSET 0 0 0
          }
        }
      }
    }
  }
  JOINT RightUpLeg
  {
    OFFSET -8.2249 1.95398 -2.59336
    CHANNELS 3 Zrotation Xrotation Yrotation
    JOINT RightLeg
    {
      OFFSET 43.5653 0 0
      CHANNELS 3 Zrotation Xrotation Yrotation
      JOINT RightFoot
      {
        OFFSET 40.6238 0 0
        CHANNELS 3 Zrotation Xrotation Yrotation
        JOINT RightToeBase
        {
          OFFSET 12.7242 0 0
          CHANNELS 3 Zrotation Xrotation Yrotation
          End Site
          {
            OFFSET 0 0 0
          }
        }
      }
    }
  }
  JOINT Spine
  {
    OFFSET 0.165834 0.87714 6.61349
    CHANNELS 3 Zrotation Xrotation Yrotation
    JOINT Spine1
    {
      OFFSET 7.38963 1.71661e-005 0
      CHANNELS 3 Zrotation Xrotation Yrotation
      JOINT Spine2
      {
        OFFSET 11.9445 1.14441e-005 0
        CHANNELS 3 Zrotation Xrotation Yrotation
        JOINT Spine3
        {
          OFFSET 14.7254 4.19617e-005 0
          CHANNELS 3 Zrotation Xrotation Yrotation
          JOINT Spine4
          {
            OFFSET 10.9679 0 0
            CHANNELS 3 Zrotation Xrotation Yrotation
            JOINT RightShoulder
            {
              OFFSET 2.46616 -1.6653 3.69651
              CHANNELS 3 Zrotation Xrotation Yrotation
              JOINT RightArm
              {
                OFFSET 13.0012 0 0
                CHANNELS 3 Zrotation Xrotation Yrotation
                JOINT RightForeArm
                {
                  OFFSET 28.7848 1.52588e-005 0
                  CHANNELS 3 Zrotation Xrotation Yrotation
                  JOINT RightHand
                  {
                    OFFSET 26.5688 1.52588e-005 0
                    CHANNELS 3 Zrotation Xrotation Yrotation
                    End Site
                    {
                      OFFSET 0 0 0
                    }
                  }
                }
              }
            }
            JOINT LeftShoulder
            {
              OFFSET 2.38034 -1.29275 -3.7523
              CHANNELS 3 Zrotation Xrotation Yrotation
              JOINT LeftArm
              {
                OFFSET 16.3182 6.10352e-005 0
                CHANNELS 3 Zrotation Xrotation Yrotation
                JOINT LeftForeArm
                {
                  OFFSET 27.0901 0 0
                  CHANNELS 3 Zrotation Xrotation Yrotation
                  JOINT LeftHand
                  {
                    OFFSET 24.5451 1.52588e-005 0
                    CHANNELS 3 Zrotation Xrotation Yrotation
                    End Site
                    {
                      OFFSET 0 0 0
                    }
                  }
                }
              }
            }
            JOINT Neck
            {
              OFFSET 5.0226 -0.0266342 0
              CHANNELS 3 Zrotation Xrotation Yrotation
              JOINT Head
              {
                OFFSET 6.69363 2.86102e-005 0
                CHANNELS 3 Zrotation Xrotation Yrotation
                End Site
                {
                  OFFSET 0 0 0
                }
              }
            }
          }
        }
      }
    }
  }
}
MOTION
Frames:	7
Frame Time:	0.0416667
-268.151 80.4442 268.165 91.4332 31.3183 83.7233 -163.019 -11.5033 84.7972 -69.3285 14.5617 -3.13137 69.3727 76.8487 103.249 7.72259 -2.22131 13.2713 175.649 -22.4706 107.123 19.3223 7.05267 -70.3164 53.0995 7.41473 86.3469 55.4702 -5.5329 -9.60307 2.46066 4.83627 -89.6692 17.2269 5.01504 -0.225829 5.56553 5.00024 -0.4469 -17.044 4.85192 1.2955 2.96861 4.85193 1.2955 133.008 -31.9338 -24.3164 -61.26 -22.6494 -124.729 -130.07 -58.9656 179.956 -17.0167 -3.09861 15.9899 -42.6327 -48.1307 149.42 9.43239 44.7505 -24.7692 47.6609 -7.79876 -92.3041 18.3682 -12.6748 -66.5192 66.7905 -2.88286 16.6483 -110.063 -6.18108 -8.48143 
-268.844 80.0726 268.931 91.3924 31.4167 83.2772 -163.395 -11.6069 84.1699 -68.4662 13.9052 -3.36689 70.1594 76.5677 102.405 8.26133 -2.35166 13.7626 176.736 -19.6757 107.652 12.2132 9.42927 -71.2493 65.344 7.14354 82.707 55.8884 -7.20757 -19.7641 2.46384 4.81382 -89.6155 17.2698 5.04864 -0.126127 5.60864 5.03822 -0.348797 -17.0012 4.85284 1.40069 3.01142 4.85284 1.40069 132.885 -31.7194 -24.3576 -57.3042 -24.9761 -122.056 -131.347 -52.8519 179.963 -17.142 -3.32759 17.3495 -42.6027 -48.2237 149.411 9.33351 45.187 -23.9849 50.0967 -8.39877 -91.9737 18.6968 -12.8299 -66.3326 66.0519 -2.92118 16.7496 -109.64 -5.99904 -8.63615 
-270.84 78.9815 271.13 91.2606 31.7109 81.9766 -164.529 -11.8398 82.3121 -65.9534 12.036 -4.06244 71.2988 75.4954 101.283 10.0047 -2.6493 15.0345 179.561 -11.2741 107.281 -9.37167 17.2631 -68.5549 97.6068 -5.6441 69.9012 52.8975 -9.6486 -46.8129 2.47411 4.74754 -89.4581 17.3961 5.14922 0.166273 5.73538 5.15156 -0.0611373 -16.8751 4.86062 1.70982 3.13755 4.86062 1.70981 132.528 -31.0894 -24.4756 -42.6133 -30.5307 -111.82 -136.524 -34.2859 179.974 -17.2068 -3.97416 21.4778 -42.5239 -48.487 149.377 8.99426 46.4596 -21.6986 58.5873 -10.0742 -90.5148 19.839 -13.2248 -65.2166 63.89 -3.04538 17.0377 -108.39 -5.47753 -9.09205 
-274 77.2061 274.587 91.007 32.2178 79.8644 -166.471 -11.9507 79.226 -61.8221 9.29134 -5.21458 68.9567 72.5152 104.388 13.6494 -2.83275 16.4776 -176.194 -2.21867 104.445 -37.0451 20.9782 -55.7821 121.78 -40.0083 61.4381 48.5013 -11.8819 -76.1718 2.49416 4.6378 -89.1985 17.6045 5.32172 0.646959 5.94441 5.34503 0.411431 -16.6662 4.88069 2.22008 3.3465 4.88071 2.22007 131.945 -30.0457 -24.6604 -8.06857 -30.3696 -88.2395 -151.101 -2.90952 179.985 -16.0018 -4.6849 28.3777 -42.4216 -48.8914 149.3 8.27398 48.5284 -17.9711 78.9899 -11.8697 -85.9375 21.8774 -13.1675 -60.7653 60.3498 -3.28952 17.4792 -106.318 -4.66449 -9.84698 
-278.263 74.1335 279.242 90.5901 32.9754 76.97 -168.95 -10.4238 75.1195 -58.236 5.99848 -6.99376 62.1518 63.382 115.577 22.3583 -2.47765 17.5407 -171.066 6.82559 100.404 -68.3652 10.8444 -40.3106 97.5529 -75.1312 23.5506 67.1318 -35.476 -85.4149 2.52913 4.4845 -88.8353 17.8944 5.57822 1.31616 6.235 5.63072 1.06863 -16.3738 4.92432 2.93522 3.6388 4.92431 2.93521 131.138 -28.5674 -24.8962 41.0327 -2.41491 -68.2693 177.075 40.0358 -179.998 -12.3733 -4.41304 35.7199 -42.3267 -49.408 149.153 6.91499 51.3569 -12.7749 118.025 -8.64889 -76.7357 20.1049 -9.84237 -50.8443 55.4411 -3.70827 18.0254 -103.398 -3.62277 -10.9116 
-283.122 70.7411 284.346 89.9811 34.0266 73.3195 -171.337 -5.08453 71.2547 -55.9634 5.42757 -9.99902 58.1916 27.4145 133.416 50.7906 3.51971 26.3875 -165.187 14.8771 94.2662 -88.0856 -2.31418 -30.4489 -3.94688 -68.6169 -80.3603 158.607 -14.3513 10.6782 2.58735 4.29121 -88.3689 18.2558 5.93591 2.17015 6.59704 6.02563 1.90599 -16.0066 5.00917 3.85666 4.0061 5.00917 3.85666 130.119 -26.6298 -25.1458 99.6842 31.8778 -95.3997 -40.5998 86.608 -0.344669 -11.084 -4.46077 40.6917 -42.2291 -50.0507 148.944 4.52229 54.8512 -5.94093 153.022 0.524444 -71.2268 11.5277 -5.02194 -43.6304 49.2121 -4.3422 18.6344 -99.6243 -2.4207 -12.3091 
-288.531 68.7926 289.37 89.1843 35.3994 68.9674 -173.444 2.6876 67.6474 -56.0336 12.2488 -9.60338 78.5926 -57.4884 140.066 71.4776 -0.0918891 89.5348 -157.939 20.2399 85.4534 -96.7459 -13.2768 -24.3107 -21.6228 -52.0937 -94.5367 136.987 24.9341 41.335 2.68067 4.02561 -87.7788 18.7525 6.42977 3.23154 7.09419 6.56568 2.9446 -15.4984 5.16204 5.01621 4.51427 5.16203 5.01621 128.688 -24.0072 -25.5897 148.73 23.2717 -138.003 -59.3603 26.6741 0.385697 -15.342 -7.45332 48.2527 -42.7306 -50.2975 148.133 -0.2654 59.2049 3.4781 170.006 8.11905 -69.7251 6.20108 -2.87818 -40.4576 41.0981 -5.58213 18.7589 -94.6569 -1.34729 -13.9516 
